<?xml version="1.0" encoding="UTF-8"?>
<svg version="1.1" xmlns="http://www.w3.org/2000/svg" width="1044" height="1043">
<path d="M0 0 C1.11784945 -0.00611329 1.11784945 -0.00611329 2.25828171 -0.01235008 C6.22443092 -0.0331272 10.19054668 -0.04744913 14.15673828 -0.05688477 C17.36201695 -0.06562571 20.56684509 -0.08622289 23.77197266 -0.1184082 C44.56416046 -0.32258986 64.6211114 0.6960545 85.20381165 3.76795959 C88.85165598 4.30500533 92.50473047 4.7729572 96.1648407 5.21740723 C117.43613833 7.94995523 139.19305794 13.59398608 159.44140625 20.56787109 C161.38963106 21.23526447 163.34485403 21.87540145 165.3046875 22.5078125 C186.5431304 29.41908266 207.29322391 37.76622687 227.12548828 48.06054688 C229.78282884 49.43745459 232.44830581 50.79808691 235.11328125 52.16015625 C244.8144932 57.14230276 254.34517751 62.13717126 263.3984375 68.23828125 C265.07088374 69.29856415 266.74344287 70.35867464 268.41821289 71.4152832 C304.52767178 94.2867381 342.48479811 123.88301617 368.609375 158.01171875 C370.41540041 160.3441654 370.41540041 160.3441654 372.80859375 162.6328125 C375.59891031 165.43996355 378.04392384 168.42634896 380.4609375 171.55078125 C380.92918945 172.15180664 381.39744141 172.75283203 381.87988281 173.37207031 C393.14181552 187.88364079 403.85476348 202.52792555 413.3984375 218.23828125 C414.048125 219.27984375 414.6978125 220.32140625 415.3671875 221.39453125 C424.3543362 235.8024998 432.11787362 250.50728439 439.2878418 265.89648438 C440.32425342 268.08185705 441.40194929 270.23962954 442.5 272.39453125 C444.37134497 276.10647467 445.93708172 279.86971939 447.4609375 283.73828125 C447.94691406 284.96546875 448.43289063 286.19265625 448.93359375 287.45703125 C449.93722215 290.02818062 450.91285352 292.60837639 451.875 295.1953125 C452.87907511 297.8882517 453.92438253 300.55836392 455.01171875 303.21875 C459.23680842 313.61068848 462.67141845 324.06485792 465.52246094 334.91259766 C466.15073004 337.29784898 466.79078188 339.68000869 467.43847656 342.06005859 C474.43308616 367.82018231 478.55557236 393.70893767 481.3984375 420.23828125 C481.49171326 421.08691238 481.58498901 421.93554352 481.68109131 422.80989075 C482.42125832 430.10247185 482.57538955 437.3451539 482.6015625 444.671875 C482.60726257 445.94386246 482.61296265 447.21584991 482.61883545 448.52638245 C482.6282416 451.21497136 482.63515904 453.90345003 482.63867188 456.59204102 C482.6451342 460.60514666 482.67929052 464.61787395 482.7109375 468.63085938 C482.78258896 486.0308357 481.65901042 502.98999254 479.3984375 520.23828125 C479.29130432 521.0862326 479.18417114 521.93418396 479.0737915 522.80783081 C478.47468172 527.54505167 477.80635482 532.26768412 477.0859375 536.98828125 C476.98371887 537.66498871 476.88150024 538.34169617 476.77618408 539.03890991 C474.94146183 551.07008446 472.34122407 562.82299925 469.11889648 574.55981445 C468.32645401 577.50589591 467.59226171 580.46338778 466.86328125 583.42578125 C463.7422689 595.98755316 459.45927866 608.18761171 455.07421875 620.35498047 C454.47580623 622.02266623 453.88935109 623.69463202 453.3046875 625.3671875 C451.34698537 630.91664153 449.0917192 636.24117397 446.60546875 641.57421875 C445.5060773 644.00070733 444.53099501 646.43615839 443.5859375 648.92578125 C440.69025691 656.26304363 437.00507359 663.2324097 433.3984375 670.23828125 C433.00317871 671.00946289 432.60791992 671.78064453 432.20068359 672.57519531 C418.82312265 698.60691827 403.13338822 723.21411386 385 746.203125 C383.89896883 747.60224022 382.81108311 749.01176907 381.734375 750.4296875 C377.97587606 755.36378999 373.99482579 760.01274552 369.8046875 764.5859375 C367.87396967 766.71411511 365.97857012 768.86283057 364.09375 771.03125 C354.29374821 782.25395982 344.01211409 792.96735208 332.89794922 802.89160156 C331.4075308 804.23011475 329.93607903 805.58964847 328.46484375 806.94921875 C323.69412184 811.35601596 318.86822663 815.55110028 313.69140625 819.47265625 C311.14191761 821.43580594 308.68075007 823.48839762 306.2109375 825.55078125 C300.34994989 830.36926826 294.22821084 834.75717579 288.01611328 839.10546875 C286.57637181 840.1136789 285.14135984 841.12863524 283.70703125 842.14453125 C266.54335999 854.26654627 266.54335999 854.26654627 257.62890625 859.03515625 C253.41845784 861.3062913 249.28717823 863.71555573 245.1640625 866.140625 C226.85788206 876.80869129 207.53392719 885.89692722 187.71191406 893.36621094 C185.42229566 894.22928786 183.14081311 895.11165526 180.859375 895.99609375 C160.08205654 903.95350657 138.82374337 909.95412196 117.08911133 914.65185547 C115.4873497 915.0009555 113.88738168 915.35874568 112.29174805 915.73486328 C82.55135093 922.71943256 52.50503921 923.85178219 22.10121536 923.86110687 C19.4974361 923.86325119 16.89376514 923.87264882 14.29000854 923.88336182 C-6.22139157 923.94742924 -26.07860034 923.0320534 -46.35409546 919.75920105 C-50.82237461 919.04245318 -55.30031279 918.39713409 -59.77893066 917.74868774 C-70.5706522 916.14288361 -80.99039012 913.80060643 -91.47851562 910.82324219 C-94.77063339 909.91616834 -98.09117763 909.1502803 -101.4140625 908.36328125 C-132.00405344 900.8785787 -161.73267772 888.79311652 -189.6015625 874.23828125 C-190.30506836 873.87347656 -191.00857422 873.50867188 -191.73339844 873.1328125 C-227.13687627 854.74872919 -260.60979617 832.21879142 -289.7578125 804.87109375 C-291.94411125 802.84696551 -294.15437425 800.88924545 -296.41015625 798.9453125 C-300.84801988 795.07855529 -305.01454253 790.97283255 -309.1640625 786.80078125 C-309.88013672 786.08857422 -310.59621094 785.37636719 -311.33398438 784.64257812 C-315.40529638 780.563857 -319.30064879 776.38762149 -323.06274414 772.0222168 C-325.01182562 769.76266764 -327.02449318 767.56445529 -329.0390625 765.36328125 C-355.93239285 735.48682518 -380.4327946 699.52945778 -396.51953125 662.61328125 C-397.71715424 659.98456365 -399.02843505 657.43107577 -400.3515625 654.86328125 C-406.86879333 641.91110785 -412.20459618 628.38357645 -416.79785156 614.63964844 C-417.36137028 612.95593943 -417.93161419 611.27447336 -418.50683594 609.59472656 C-426.90113031 585.00839227 -432.93545623 560.07111522 -436.9765625 534.42578125 C-437.15883392 533.2748851 -437.15883392 533.2748851 -437.3447876 532.10073853 C-438.17029189 526.82226676 -438.90851303 521.53564874 -439.6015625 516.23828125 C-439.70047791 515.51412018 -439.79939331 514.78995911 -439.90130615 514.04385376 C-441.97866188 498.43992733 -441.97653839 482.77414173 -441.97216797 467.06225586 C-441.97200672 464.07763083 -441.98571688 461.09362825 -442.01318359 458.10913086 C-442.20894141 436.49038331 -440.66995411 415.63968372 -437.6015625 394.23828125 C-437.16759328 391.05132459 -436.73725968 387.86389976 -436.30804443 384.67630005 C-432.3207948 356.83998538 -424.01520418 329.65940565 -414.6015625 303.23828125 C-414.1669873 301.99546387 -414.1669873 301.99546387 -413.72363281 300.72753906 C-407.95677713 284.26020591 -400.40889056 268.50172498 -392.48193359 252.97998047 C-391.67753573 251.38858436 -390.8979753 249.78469608 -390.12109375 248.1796875 C-380.19605002 227.69017145 -367.60441802 208.06308517 -353.87890625 189.92871094 C-352.6416203 188.29129353 -351.41651784 186.64552703 -350.1953125 184.99609375 C-343.40979707 175.8635336 -336.43239558 167.02467033 -328.76171875 158.6171875 C-326.79886317 156.45556173 -324.8818999 154.26301863 -322.9765625 152.05078125 C-320.2243591 148.88638149 -317.32195371 145.93447968 -314.328125 143 C-312.61286884 141.24981781 -311.04915675 139.4293729 -309.4765625 137.55078125 C-304.7853764 132.09019788 -299.3645851 127.37996581 -294.02978516 122.56445312 C-292.75451618 121.38030593 -291.53847171 120.13310597 -290.33203125 118.87890625 C-288.6015625 117.23828125 -288.6015625 117.23828125 -286.6015625 117.23828125 C-286.6015625 116.57828125 -286.6015625 115.91828125 -286.6015625 115.23828125 C-282.13097426 111.23828125 -282.13097426 111.23828125 -279.6015625 111.23828125 C-279.6015625 110.57828125 -279.6015625 109.91828125 -279.6015625 109.23828125 C-277.73046875 107.5390625 -277.73046875 107.5390625 -275.1640625 105.55078125 C-273.78541016 104.47570312 -273.78541016 104.47570312 -272.37890625 103.37890625 C-271.46238281 102.6725 -270.54585937 101.96609375 -269.6015625 101.23828125 C-268.48974609 100.36429688 -268.48974609 100.36429688 -267.35546875 99.47265625 C-265.11510977 97.71325507 -262.86082601 95.97333656 -260.6015625 94.23828125 C-259.70953125 93.54992187 -258.8175 92.8615625 -257.8984375 92.15234375 C-251.15337092 87.0123866 -244.22961322 82.2536676 -237.1484375 77.59375 C-234.12720541 75.60131339 -231.16958969 73.53251345 -228.2265625 71.42578125 C-224.68885901 68.93265253 -221.10831245 66.76362427 -217.29296875 64.7265625 C-215.18058862 63.55846841 -213.12442074 62.35217792 -211.06640625 61.09375 C-200.15054621 54.45047812 -188.86385438 48.90368465 -177.28564453 43.51171875 C-174.59666839 42.23595929 -171.93985171 40.90795582 -169.28515625 39.5625 C-165.78009897 37.79804234 -162.28656603 36.22468533 -158.6015625 34.86328125 C-154.83151997 33.4544992 -151.06968072 32.03536057 -147.33203125 30.54296875 C-138.86070482 27.1689757 -130.38893435 24.08569589 -121.65234375 21.47265625 C-118.95979421 20.66651145 -116.29914232 19.80213616 -113.64453125 18.87890625 C-85.25484202 9.14946449 -55.32317056 4.58200796 -25.6015625 1.23828125 C-24.88845917 1.14910934 -24.17535583 1.05993744 -23.44064331 0.96806335 C-15.64201427 0.06684369 -7.83992547 0.036867 0 0 Z M-58.92382812 66.66259766 C-61.44062507 67.20368146 -63.96007213 67.6928666 -66.4921875 68.15625 C-67.20979248 68.28902344 -67.92739746 68.42179687 -68.66674805 68.55859375 C-70.48997113 68.89377619 -72.31333746 69.22817925 -74.13671875 69.5625 C-74.95011719 69.78550781 -75.76351563 70.00851563 -76.6015625 70.23828125 C-76.9315625 70.89828125 -77.2615625 71.55828125 -77.6015625 72.23828125 C-77.00206787 72.46491455 -76.40257324 72.69154785 -75.78491211 72.92504883 C-73.03569699 73.96538556 -70.28737617 75.00806556 -67.5390625 76.05078125 C-66.59611328 76.40720703 -65.65316406 76.76363281 -64.68164062 77.13085938 C-60.64653002 78.66335783 -56.62383387 80.19874028 -52.6640625 81.91796875 C-50.3311647 82.92373336 -48.08292762 83.79904093 -45.6640625 84.55078125 C-35.59807245 87.83798274 -25.74541499 91.72478498 -15.9765625 95.80078125 C-6.5947151 99.7103288 2.9108671 103.11688964 12.5859375 106.23828125 C17.39916381 107.82149572 21.89738987 109.79197846 26.4765625 111.94921875 C30.92215181 113.91050815 35.50229017 115.44885411 40.09375 117.03125 C43.64999899 118.33016364 46.99085666 119.86976072 50.3359375 121.63671875 C54.29690477 122.79200087 57.56178103 121.64133345 61.1796875 119.8984375 C62.076875 119.37121094 62.9740625 118.84398437 63.8984375 118.30078125 C66.63343498 116.70143646 69.12056974 115.32997761 72.1328125 114.3359375 C76.66390525 112.81292666 80.85529051 110.70367612 85.1484375 108.61328125 C92.91023538 104.86815919 100.71235453 101.25709923 108.62402344 97.83935547 C112.39951184 96.1936524 115.8763779 94.38795211 119.3984375 92.23828125 C120.8004005 91.64007523 122.21829591 91.07808166 123.6484375 90.55078125 C131.41832505 87.53965462 138.88463803 83.8295636 146.3984375 80.23828125 C143.34617425 77.64565294 140.85574001 76.65161328 136.9609375 75.80078125 C132.74439932 74.84249223 128.66197362 73.71493312 124.5546875 72.3671875 C116.58560823 69.89085583 108.5150267 68.21992737 100.3359375 66.61328125 C99.56431274 66.4600943 98.79268799 66.30690735 97.99768066 66.14907837 C86.93267631 63.96317769 75.97989921 62.1761568 64.71533203 61.41650391 C62.28713139 61.22971924 59.87629782 60.96651989 57.45703125 60.6875 C19.06729787 56.44058008 -21.21711765 58.37776124 -58.92382812 66.66259766 Z M-174.4765625 109.05078125 C-175.52585937 109.57285156 -176.57515625 110.09492188 -177.65625 110.6328125 C-180.19124019 112.0146175 -182.32399203 113.48483788 -184.6015625 115.23828125 C-185.92151511 115.99139937 -187.25582123 116.71977683 -188.6015625 117.42578125 C-198.48370378 122.83665861 -207.5450511 129.56915967 -216.6015625 136.23828125 C-218.49671766 137.61421582 -220.39254723 138.98922198 -222.2890625 140.36328125 C-223.18625 141.018125 -224.0834375 141.67296875 -225.0078125 142.34765625 C-226.68995211 143.57379415 -228.37717919 144.79299445 -230.0703125 146.00390625 C-230.8025 146.535 -231.5346875 147.06609375 -232.2890625 147.61328125 C-232.93230469 148.07476562 -233.57554687 148.53625 -234.23828125 149.01171875 C-234.68816406 149.41648438 -235.13804687 149.82125 -235.6015625 150.23828125 C-235.6015625 150.89828125 -235.6015625 151.55828125 -235.6015625 152.23828125 C-236.32988281 152.47417969 -237.05820312 152.71007812 -237.80859375 152.953125 C-241.04788957 154.44365412 -242.84725596 156.21802153 -245.2890625 158.80078125 C-249.43362357 163.15431178 -249.43362357 163.15431178 -251.6015625 164.23828125 C-251.6015625 164.89828125 -251.6015625 165.55828125 -251.6015625 166.23828125 C-252.17285889 166.48433105 -252.74415527 166.73038086 -253.33276367 166.98388672 C-255.98148493 168.44833629 -257.76841844 170.16266555 -259.90234375 172.30859375 C-260.71509766 173.12328125 -261.52785156 173.93796875 -262.36523438 174.77734375 C-263.20634766 175.63070312 -264.04746094 176.4840625 -264.9140625 177.36328125 C-265.74357422 178.1934375 -266.57308594 179.02359375 -267.42773438 179.87890625 C-271.8324163 184.31487636 -276.0923001 188.82150836 -280.1484375 193.57910156 C-281.45693456 195.07314492 -282.86830125 196.47556096 -284.2890625 197.86328125 C-286.71431926 200.2091388 -286.71431926 200.2091388 -288.6015625 203.23828125 C-290.6015625 206.23828125 -290.6015625 206.23828125 -293.3515625 208.92578125 C-295.95023998 211.05889799 -295.95023998 211.05889799 -295.6015625 214.23828125 C-297.0865625 214.73328125 -297.0865625 214.73328125 -298.6015625 215.23828125 C-299.88975845 216.65896716 -299.88975845 216.65896716 -301.01953125 218.44921875 C-301.46530518 219.11163574 -301.9110791 219.77405273 -302.37036133 220.45654297 C-302.83853271 221.1682666 -303.3067041 221.87999023 -303.7890625 222.61328125 C-304.77473868 224.082906 -305.7617242 225.5516534 -306.75 227.01953125 C-307.23436523 227.74140625 -307.71873047 228.46328125 -308.21777344 229.20703125 C-310.04834149 231.89410362 -311.97301646 234.50523484 -313.9140625 237.11328125 C-320.43122048 245.02428309 -320.43122048 245.02428309 -323.6015625 254.23828125 C-324.2615625 254.23828125 -324.9215625 254.23828125 -325.6015625 254.23828125 C-325.9315625 256.21828125 -326.2615625 258.19828125 -326.6015625 260.23828125 C-316.07974674 257.7136727 -305.6591921 254.89087717 -295.24633789 251.95141602 C-288.20857838 249.96504981 -281.16076218 248.0219465 -274.1015625 246.11328125 C-266.90850263 244.16536137 -259.74396075 242.14406898 -252.60864258 239.99389648 C-249.20817673 238.97577567 -245.80770703 238.0231587 -242.359375 237.1796875 C-241.67480225 237.00969238 -240.99022949 236.83969727 -240.28491211 236.66455078 C-238.41803085 236.20736469 -236.54702625 235.76710896 -234.67578125 235.328125 C-230.60399302 233.88463209 -228.56196626 232.00762725 -226.51171875 228.23046875 C-226.09212891 227.18246094 -226.09212891 227.18246094 -225.6640625 226.11328125 C-223.53370224 221.03191612 -221.09098044 216.15179712 -218.6015625 211.23828125 C-217.66299306 209.36381635 -216.7255472 207.48878855 -215.7890625 205.61328125 C-209.0703125 192.17578125 -202.3515625 178.73828125 -195.6328125 165.30078125 C-195.29854248 164.63216064 -194.96427246 163.96354004 -194.61987305 163.2746582 C-193.94451529 161.92410461 -193.26889951 160.57368002 -192.59301758 159.22338867 C-190.93738911 155.91495222 -189.28613189 152.60448442 -187.64453125 149.2890625 C-187.17563477 148.34450195 -187.17563477 148.34450195 -186.69726562 147.38085938 C-185.84497349 145.66344491 -184.9946819 143.94503805 -184.14453125 142.2265625 C-182.73008868 139.48719904 -181.19125576 136.87793106 -179.6015625 134.23828125 C-178.66644787 132.43522977 -177.75080059 130.62199098 -176.8515625 128.80078125 C-175.13564842 125.33015102 -173.41512532 121.86309347 -171.65625 118.4140625 C-171.33495117 117.78105225 -171.01365234 117.14804199 -170.68261719 116.49584961 C-169.76432727 114.68764389 -168.84316234 112.88089911 -167.921875 111.07421875 C-166.46087418 108.45746289 -166.46087418 108.45746289 -166.6015625 106.23828125 C-169.64302989 106.23828125 -171.7761723 107.69398373 -174.4765625 109.05078125 Z M217.3984375 111.23828125 C217.60339844 111.95113281 217.80835938 112.66398437 218.01953125 113.3984375 C218.42365234 114.83509766 218.42365234 114.83509766 218.8359375 116.30078125 C219.10277344 117.24050781 219.36960937 118.18023437 219.64453125 119.1484375 C220.3984375 122.23828125 220.3984375 122.23828125 220.78125 125.3984375 C221.62390508 130.64103205 223.23284728 135.55913937 224.8359375 140.61328125 C226.76144987 146.71139879 228.59217569 152.74813837 229.90844727 159.00830078 C230.83138789 163.20866932 232.0049202 167.34359306 233.1484375 171.48828125 C233.4072168 172.42978027 233.66599609 173.3712793 233.93261719 174.34130859 C234.75065763 177.30806203 235.57372354 180.27337648 236.3984375 183.23828125 C236.67300781 184.22795898 236.94757812 185.21763672 237.23046875 186.23730469 C238.03102546 189.1141868 238.83833294 191.98907465 239.6484375 194.86328125 C239.89432617 195.74532227 240.14021484 196.62736328 240.39355469 197.53613281 C240.74401855 198.76928223 240.74401855 198.76928223 241.1015625 200.02734375 C241.40562012 201.10556396 241.40562012 201.10556396 241.71582031 202.20556641 C243.03886456 206.14536125 243.76377561 207.85584628 247.42578125 210.0625 C248.72306242 210.69624487 250.02701038 211.31645311 251.3359375 211.92578125 C252.04105469 212.26609375 252.74617187 212.60640625 253.47265625 212.95703125 C255.77519234 214.06401976 258.08590023 215.15235686 260.3984375 216.23828125 C261.9728818 216.98389891 263.54709961 217.72999503 265.12109375 218.4765625 C267.52009921 219.6131147 269.91970586 220.74829821 272.32128906 221.87939453 C277.44031178 224.29365596 282.52744682 226.76217988 287.5859375 229.30078125 C288.2444873 229.63126465 288.90303711 229.96174805 289.58154297 230.30224609 C292.69082203 231.86648454 295.79465979 233.4405981 298.89453125 235.0234375 C309.30698014 240.31570936 319.8878479 245.23876299 330.48876953 250.13916016 C337.2479472 253.26828105 343.95629033 256.47754752 350.60742188 259.83203125 C354.89178568 261.990703 359.20084318 264.09492072 363.5234375 266.17578125 C364.35875 266.58634766 365.1940625 266.99691406 366.0546875 267.41992188 C367.24964844 267.99323242 367.24964844 267.99323242 368.46875 268.578125 C369.17789551 268.92222412 369.88704102 269.26632324 370.61767578 269.62084961 C371.20532715 269.82460205 371.79297852 270.02835449 372.3984375 270.23828125 C373.0584375 269.90828125 373.7184375 269.57828125 374.3984375 269.23828125 C374.00011719 268.58601562 373.60179687 267.93375 373.19140625 267.26171875 C372.66160156 266.38773438 372.13179687 265.51375 371.5859375 264.61328125 C371.06386719 263.75476563 370.54179688 262.89625 370.00390625 262.01171875 C368.93082582 260.15797883 367.92094664 258.26624628 366.9765625 256.34375 C365.17549348 252.79956715 363.12298593 249.50728493 360.9609375 246.17578125 C360.57873047 245.57701172 360.19652344 244.97824219 359.80273438 244.36132812 C358.06598969 241.66922644 356.305467 239.1221114 354.30078125 236.6171875 C352.40688856 234.24884941 350.94254079 231.84515887 349.3984375 229.23828125 C347.75308065 226.77059921 346.04889407 224.3468596 344.3359375 221.92578125 C343.88927734 221.28060547 343.44261719 220.63542969 342.98242188 219.97070312 C341.83906933 218.35565357 340.62404279 216.79183581 339.3984375 215.23828125 C338.7384375 215.23828125 338.0784375 215.23828125 337.3984375 215.23828125 C337.29273438 214.63886719 337.18703125 214.03945313 337.078125 213.421875 C336.3020411 210.92859396 335.44534496 210.02667327 333.5234375 208.30078125 C330.90136063 205.83552716 329.22736838 203.34746375 327.3984375 200.23828125 C326.7384375 200.23828125 326.0784375 200.23828125 325.3984375 200.23828125 C324.99625 199.36429688 324.99625 199.36429688 324.5859375 198.47265625 C323.38362759 196.21041524 322.06017837 194.43251807 320.3984375 192.48828125 C319.8828125 191.8746875 319.3671875 191.26109375 318.8359375 190.62890625 C317.49220498 189.00651749 317.49220498 189.00651749 315.3984375 189.23828125 C315.04289795 188.39487183 315.04289795 188.39487183 314.68017578 187.53442383 C313.10454449 184.71179292 311.18269392 182.78056119 308.890625 180.5 C307.53324219 179.14551758 307.53324219 179.14551758 306.1484375 177.76367188 C305.67535156 177.29678955 305.20226562 176.82990723 304.71484375 176.34887695 C303.29385567 174.94594004 301.88123307 173.53454632 300.46875 172.12304688 C295.27172834 166.95905713 289.98073279 161.98226868 284.3984375 157.23828125 C283.82287109 156.73393555 283.24730469 156.22958984 282.65429688 155.70996094 C279.92061714 153.06543204 279.92061714 153.06543204 276.3984375 152.23828125 C276.0684375 151.24828125 275.7384375 150.25828125 275.3984375 149.23828125 C273.96104369 147.84216857 273.96104369 147.84216857 272.15234375 146.56640625 C271.48517334 146.07060059 270.81800293 145.57479492 270.13061523 145.06396484 C269.41462158 144.54398926 268.69862793 144.02401367 267.9609375 143.48828125 C267.22883057 142.94896973 266.49672363 142.4096582 265.74243164 141.85400391 C263.63432846 140.30615295 261.51859525 138.76956492 259.3984375 137.23828125 C258.03332031 136.25214844 258.03332031 136.25214844 256.640625 135.24609375 C254.24461676 133.54858283 251.82824381 131.88707839 249.3984375 130.23828125 C248.82738281 129.84898437 248.25632812 129.4596875 247.66796875 129.05859375 C241.00764533 124.5268273 234.39129716 120.04357571 227.265625 116.265625 C225.41479486 115.24728122 223.69771349 114.12656656 221.9609375 112.92578125 C219.63141962 111.05495106 219.63141962 111.05495106 217.3984375 111.23828125 Z M-112.6015625 115.23828125 C-112.96507812 115.9653125 -113.32859375 116.69234375 -113.703125 117.44140625 C-117.3359375 124.70703125 -120.96875 131.97265625 -124.6015625 139.23828125 C-125.09785156 140.24117187 -125.59414063 141.2440625 -126.10546875 142.27734375 C-127.46481389 144.96764041 -128.88652387 147.60450394 -130.3515625 150.23828125 C-133.63026666 156.2209044 -136.67686166 162.30826813 -139.70166016 168.42236328 C-141.20136748 171.44863108 -142.71446041 174.46819275 -144.2265625 177.48828125 C-146.5232237 182.07533336 -146.5232237 182.07533336 -148.80078125 186.671875 C-151.57478336 192.28801261 -154.48635816 197.82629193 -157.4140625 203.36328125 C-160.6788799 209.54376705 -163.90594954 215.73986976 -167.0390625 221.98828125 C-167.35657471 222.61879395 -167.67408691 223.24930664 -168.0012207 223.89892578 C-170.02325438 227.95602799 -171.84988524 232.05996852 -173.6015625 236.23828125 C-172.93326416 236.36879883 -172.26496582 236.49931641 -171.57641602 236.63378906 C-159.56460225 238.98730906 -147.58185367 241.35054689 -135.7109375 244.34375 C-132.31195014 245.14364036 -128.89967852 245.66206558 -125.4453125 246.16796875 C-118.66243977 247.17798668 -112.02939329 248.62905112 -105.3515625 250.17578125 C-97.105775 252.05025936 -88.88170532 253.81056366 -80.54003906 255.19506836 C-74.74850141 256.17011571 -69.04465057 257.44984689 -63.32104492 258.76049805 C-58.35089433 259.88538078 -53.37724118 260.83657874 -48.3515625 261.67578125 C-40.75748014 262.94861238 -33.28942225 264.64524851 -25.79223633 266.39331055 C-18.57508759 268.05929387 -11.33985176 269.44147601 -4.03515625 270.66015625 C-1.21024774 271.135795 1.59378902 271.65689538 4.3984375 272.23828125 C5.6229397 269.78927686 5.71660417 267.49409412 6.02783203 264.80224609 C6.99407352 258.11748447 8.67242458 251.53255343 10.13867188 244.94335938 C11.62755031 238.14919698 12.86508558 231.38541864 13.87329102 224.50463867 C14.99806057 217.50868707 16.64608508 210.6126936 18.1875 203.69921875 C19.68734842 196.86657596 20.94104515 190.05644214 21.95605469 183.13525391 C22.50745613 179.52436568 23.23110002 175.99129992 24.0234375 172.42578125 C24.28382813 171.24371094 24.54421875 170.06164062 24.8125 168.84375 C25.00585938 167.98394531 25.19921875 167.12414062 25.3984375 166.23828125 C24.58503906 165.95855469 23.77164063 165.67882812 22.93359375 165.390625 C16.16906469 163.0241812 9.50949839 160.50585945 2.8984375 157.73828125 C-3.30483773 155.14670612 -9.54345236 152.76520539 -15.890625 150.54296875 C-27.40523702 146.49467358 -38.8203868 142.18492205 -50.18041992 137.72314453 C-54.64761871 135.97560193 -59.13480078 134.32042062 -63.6640625 132.73828125 C-68.84239258 130.91660804 -73.91244695 128.91307083 -78.9765625 126.80078125 C-95.39938885 119.78835672 -95.39938885 119.78835672 -112.6015625 115.23828125 Z M157.6484375 131.36328125 C152.50271807 133.80959669 147.3364338 136.15011925 142.0859375 138.36328125 C137.31636859 140.3852797 132.6756633 142.54132138 128.06640625 144.90234375 C124.83357906 146.52112398 121.55600915 148.03652732 118.2734375 149.55078125 C112.12863282 152.38732715 106.08477511 155.39518149 100.05078125 158.45922852 C96.34783756 160.32122009 92.64950272 162.00642723 88.7734375 163.48828125 C83.16033259 165.63372562 83.16033259 165.63372562 78.3984375 169.23828125 C75.68549194 176.0781228 74.94572354 183.65413217 73.73803711 190.88330078 C72.30168721 199.25574495 70.37506041 207.52151989 68.4675293 215.79711914 C66.90926484 222.52577678 66.90926484 222.52577678 65.87890625 229.34765625 C65.12375823 235.46251338 63.5683949 241.38497324 62.12695312 247.36914062 C61.90587891 248.30951172 61.68480469 249.24988281 61.45703125 250.21875 C61.25392334 251.06332764 61.05081543 251.90790527 60.84155273 252.77807617 C60.38424346 255.31708749 60.32053804 257.66414966 60.3984375 260.23828125 C64.49878291 259.90582081 67.7233173 258.71998486 71.3984375 256.98828125 C75.48745969 255.06177549 79.56616592 253.40938857 83.8359375 251.92578125 C93.14800317 248.67620544 102.25676639 244.93490395 111.3984375 241.23828125 C122.13720564 236.90512961 132.88741556 232.63225847 143.7421875 228.59765625 C152.97454408 225.16511342 162.11998955 221.56206012 171.20678711 217.76293945 C176.23458341 215.67381628 181.30315207 213.81689648 186.4921875 212.16015625 C187.12125 211.8559375 187.7503125 211.55171875 188.3984375 211.23828125 C189.83299686 206.93460317 188.1234164 203.73977535 186.7109375 199.61328125 C184.62741532 193.30508922 182.76846788 187.03849826 181.3359375 180.55078125 C179.92053495 174.1616974 178.13158686 167.98282037 176.11083984 161.76049805 C175.00276299 158.30880861 174.0657283 154.93704504 173.4609375 151.36328125 C172.08043423 143.43563869 169.0250707 135.82082616 166.3984375 128.23828125 C163.1738667 128.23828125 160.5057667 129.98590205 157.6484375 131.36328125 Z M241.3984375 266.23828125 C238.84881515 274.87300228 237.17821236 283.44915316 235.97705078 292.36669922 C234.78706575 301.17884467 233.14714444 309.84729292 231.3359375 318.55078125 C229.26021676 328.08839605 229.26021676 328.08839605 227.8984375 337.7421875 C227.16923492 345.48579616 225.25052816 353.09399445 223.65820312 360.6953125 C222.1003145 368.27987199 220.89083125 375.82064904 219.92358398 383.50146484 C218.86048432 391.06622706 217.18160073 398.51631739 215.609375 405.98828125 C213.80922536 414.71627951 212.47309651 423.39301091 211.3984375 432.23828125 C211.19033986 433.8841444 210.98205962 435.5299845 210.7734375 437.17578125 C210.6496875 438.18640625 210.5259375 439.19703125 210.3984375 440.23828125 C222.25959612 442.80421427 234.09362663 445.29641504 246.10083008 447.07348633 C252.74604723 448.08042199 259.31505535 449.38902808 265.8984375 450.73828125 C275.70547631 452.74621522 285.51870802 454.43791292 295.41552734 455.9296875 C299.75952388 456.60572931 304.08056607 457.41351929 308.3984375 458.23828125 C311.51366655 451.57348834 314.43287524 444.83596307 317.2734375 438.05078125 C321.50459723 427.94918508 325.86071236 417.9077493 330.33203125 407.91015625 C333.78911906 400.1768177 337.18914893 392.42711012 340.4609375 384.61328125 C345.11597855 373.49792946 349.86077889 362.44085183 355.0234375 351.55078125 C359.07444576 342.98678793 362.41770718 334.22562301 365.3984375 325.23828125 C364.63402344 324.88636719 363.86960937 324.53445313 363.08203125 324.171875 C335.93729217 311.66112281 335.93729217 311.66112281 323.20947266 305.16210938 C319.92500312 303.48666684 316.63141717 301.82944253 313.3359375 300.17578125 C312.67239258 299.84280029 312.00884766 299.50981934 311.32519531 299.16674805 C306.27441527 296.64568868 301.17322232 294.2480594 296.04711914 291.88476562 C291.40976653 289.73686225 286.83569684 287.47843872 282.2734375 285.17578125 C276.56200909 282.29582267 270.81074445 279.54120409 264.98828125 276.890625 C259.49254668 274.36103227 254.03678234 271.74717111 248.58081055 269.13305664 C247.39998901 268.57026001 247.39998901 268.57026001 246.1953125 267.99609375 C245.48729492 267.65723145 244.77927734 267.31836914 244.04980469 266.96923828 C242.54701858 266.17082154 242.54701858 266.17082154 241.3984375 266.23828125 Z M155.57983398 280.5769043 C149.02307192 283.21331114 142.45619644 285.71059909 135.78125 288.03125 C129.29568223 290.34538446 122.9034468 292.90661303 116.49365234 295.42138672 C113.55285786 296.56796075 110.6001457 297.68265549 107.6484375 298.80078125 C103.09525479 300.54271858 98.61904288 302.41933211 94.1484375 304.36328125 C89.5842617 306.34616207 85.05305462 308.09218185 80.30859375 309.58203125 C77.53294206 310.53562938 74.9778787 311.84935138 72.3984375 313.23828125 C84.27833434 327.28156791 97.28042935 340.23606475 110.3359375 353.17578125 C113.41055109 356.22356184 116.48164624 359.27482863 119.55078125 362.328125 C120.23631577 363.00536118 120.92185028 363.68259735 121.62815857 364.38035583 C125.49476635 368.22746427 129.14424146 372.19038585 132.70683289 376.31959534 C135.34526745 379.31221382 138.15500884 382.11888269 140.98828125 384.92578125 C141.57766983 385.51375488 142.16705841 386.10172852 142.77430725 386.70751953 C144.62581368 388.55350486 146.48079567 390.39595017 148.3359375 392.23828125 C149.60505123 393.50236975 150.87393339 394.76669081 152.14257812 396.03125 C155.2252007 399.10294849 158.31094178 402.17148133 161.3984375 405.23828125 C163.70297875 401.78146938 164.17599424 399.18183531 164.9609375 395.11328125 C165.20972656 393.85257812 165.45851563 392.591875 165.71484375 391.29296875 C166.19760923 388.62325633 166.51124099 386.05325095 166.76953125 383.33984375 C167.64676775 374.93456849 169.67612541 366.64469842 171.38720703 358.37646484 C173.66682384 347.52580796 173.66682384 347.52580796 175.11572266 336.54248047 C175.97597894 329.5311689 177.70051756 322.60419825 179.13867188 315.69335938 C180.66238943 308.25625658 181.9365511 300.84341699 182.95825195 293.32104492 C183.66654687 288.36062346 184.74697757 283.5083546 185.8125 278.61328125 C186.36912181 275.40713963 186.50727451 272.48360308 186.3984375 269.23828125 C176.96782661 269.23828125 164.12411064 277.13040471 155.57983398 280.5769043 Z M-239.2265625 288.98828125 C-246.0867396 291.19885487 -252.94490822 293.15789731 -259.95263672 294.83666992 C-265.21981317 296.10867512 -270.35954164 297.67030174 -275.5234375 299.3046875 C-279.50061663 300.51096391 -283.52002655 301.47682672 -287.55859375 302.453125 C-291.93643158 303.58270832 -296.22712583 304.96341509 -300.53515625 306.33203125 C-303.30173846 307.14967083 -306.02018418 307.76232579 -308.8515625 308.30078125 C-310.7078125 308.76484375 -310.7078125 308.76484375 -312.6015625 309.23828125 C-313.97670985 312.23591482 -313.97670985 312.23591482 -312.36328125 315 C-311.78191406 316.06863281 -311.20054687 317.13726562 -310.6015625 318.23828125 C-309.53156536 320.50559164 -308.469613 322.77670926 -307.4140625 325.05078125 C-306.79451129 326.38292436 -306.17471 327.71495118 -305.5546875 329.046875 C-305.23435547 329.73507324 -304.91402344 330.42327148 -304.58398438 331.13232422 C-302.61911485 335.34429353 -300.6373829 339.5483337 -298.65576172 343.75244141 C-296.95248898 347.36626346 -295.25290357 350.98170021 -293.5625 354.6015625 C-289.95175018 362.32385479 -286.25091072 369.98415654 -282.40625 377.59375 C-279.89301997 382.61880288 -277.5362254 387.71927543 -275.17773438 392.81835938 C-273.75456919 396.2652364 -273.75456919 396.2652364 -271.6015625 399.23828125 C-269.83467432 399.64258197 -268.05577881 399.99465484 -266.2734375 400.32421875 C-265.16967773 400.53135498 -264.06591797 400.73849121 -262.92871094 400.9519043 C-261.74825195 401.17015869 -260.56779297 401.38841309 -259.3515625 401.61328125 C-244.95342524 404.31657721 -244.95342524 404.31657721 -238.3515625 405.92578125 C-234.3157732 406.89975173 -230.34421387 407.58275643 -226.2265625 408.11328125 C-219.75143151 408.96069772 -213.46605794 410.34881488 -207.1015625 411.80078125 C-198.55680159 413.73881848 -190.38742493 415.07078647 -181.6015625 415.23828125 C-181.90449219 414.39007813 -182.20742188 413.541875 -182.51953125 412.66796875 C-182.93847656 411.49492187 -183.35742188 410.321875 -183.7890625 409.11328125 C-184.01392334 408.48381592 -184.23878418 407.85435059 -184.47045898 407.20581055 C-185.61668903 403.99692498 -186.76214994 400.78777098 -187.90625 397.578125 C-189.13558732 394.13063557 -190.36819628 390.68433104 -191.6015625 387.23828125 C-191.91738281 386.35011719 -192.23320312 385.46195312 -192.55859375 384.546875 C-194.63629251 378.75584229 -196.85306543 373.02696956 -199.1015625 367.30078125 C-201.48001275 361.2358898 -203.70138031 355.15600429 -205.7109375 348.95703125 C-208.25304534 341.19691257 -211.22755075 333.59292768 -214.17578125 325.98046875 C-216.21758801 320.66152556 -218.15896564 315.30460133 -220.1027832 309.94921875 C-221.3889976 306.42773139 -222.70206005 302.94221001 -224.20703125 299.5078125 C-225.43797153 296.62182646 -226.42287108 293.81182763 -227.2890625 290.80078125 C-227.54042969 289.93582031 -227.79179687 289.07085937 -228.05078125 288.1796875 C-228.23253906 287.53902344 -228.41429687 286.89835937 -228.6015625 286.23828125 C-232.2685058 286.23828125 -235.76157659 287.85488726 -239.2265625 288.98828125 Z M-171.6015625 291.23828125 C-166.84782648 304.24091175 -166.84782648 304.24091175 -161.9140625 317.17578125 C-160.38028766 321.12475349 -158.96990341 325.08337057 -157.6640625 329.11328125 C-155.92711391 334.45122082 -153.87029593 339.61251886 -151.74462891 344.80322266 C-150.00706425 349.09245568 -148.6277821 353.37664626 -147.38671875 357.828125 C-146.15629885 361.60508558 -144.42583841 365.12908491 -142.6875 368.6953125 C-141.6015625 371.23828125 -141.6015625 371.23828125 -141.15234375 373.54296875 C-140.36475354 377.39713363 -138.87345148 380.90639617 -137.4140625 384.55078125 C-136.77790938 386.16377224 -136.14250733 387.77705963 -135.5078125 389.390625 C-135.188125 390.20128418 -134.8684375 391.01194336 -134.5390625 391.84716797 C-130.97190382 400.94528049 -127.55494847 410.09078143 -124.55859375 419.39453125 C-124.24277344 420.33296875 -123.92695313 421.27140625 -123.6015625 422.23828125 C-123.48852783 422.88821045 -123.37549316 423.53813965 -123.2590332 424.20776367 C-122.68636361 426.65060611 -122.10163386 428.21248022 -120.6015625 430.23828125 C-116.65040448 432.36974018 -112.49384649 433.42806658 -108.1640625 434.55078125 C-107.03806641 434.87111328 -105.91207031 435.19144531 -104.75195312 435.52148438 C-99.23654109 437.07239667 -93.68720407 438.47177689 -88.125 439.84375 C-84.22855375 440.80700683 -80.44290629 441.874488 -76.6640625 443.23828125 C-70.41179778 445.39137903 -64.06373363 446.86246417 -57.6015625 448.23828125 C-57.44300781 447.64402344 -57.28445313 447.04976562 -57.12109375 446.4375 C-55.79286813 441.71899683 -54.25661297 437.30026327 -52.1640625 432.86328125 C-49.91872766 428.09780939 -48.24040555 423.29748908 -46.63671875 418.28515625 C-45.21886272 414.11184415 -43.48432156 410.09605405 -41.7578125 406.04296875 C-40.46050869 402.89613045 -39.37652234 399.72172032 -38.33203125 396.484375 C-35.66259102 388.27620318 -32.4184187 380.32299316 -29.10083008 372.36181641 C-27.35734055 368.15280986 -25.77241817 363.9545534 -24.41015625 359.60546875 C-23.26913933 356.26510036 -21.92921839 353.00761888 -20.6015625 349.73828125 C-18.69640403 345.04505779 -16.90253399 340.35401576 -15.375 335.5234375 C-14.50993756 332.96757119 -13.52623042 330.47832654 -12.515625 327.9765625 C-12.15678223 327.08622314 -11.79793945 326.19588379 -11.42822266 325.27856445 C-11.01902588 324.26862427 -11.01902588 324.26862427 -10.6015625 323.23828125 C-14.77703319 322.2719481 -18.95390987 321.31199757 -23.13208008 320.35742188 C-24.54717579 320.03323923 -25.96190395 319.70744711 -27.3762207 319.37988281 C-35.38396495 317.5264752 -43.32681933 315.91755513 -51.46801758 314.74365234 C-58.00787163 313.68891936 -64.41819215 312.01116684 -70.8515625 310.44921875 C-77.37729744 308.89621933 -83.86080298 307.68771267 -90.49804688 306.72119141 C-95.16421874 305.99513037 -99.74822146 304.97095411 -104.3515625 303.92578125 C-113.83603994 301.81671531 -123.34328803 299.85965822 -132.87573242 297.97998047 C-138.32291052 296.90349696 -143.74843405 295.77545178 -149.1640625 294.55078125 C-156.57660975 292.92611336 -164.06657817 292.07006523 -171.6015625 291.23828125 Z M-361.6015625 334.23828125 C-363.69029018 339.50983206 -365.3550277 344.75473404 -366.79296875 350.23828125 C-367.32899283 352.22700829 -367.89909811 354.20688203 -368.50390625 356.17578125 C-371.82423701 367.05686517 -373.92144251 378.15744343 -376.04199219 389.32373047 C-376.51365614 391.78041646 -377.00752451 394.23036786 -377.515625 396.6796875 C-380.13901601 409.72790042 -380.8441367 422.97314433 -381.6015625 436.23828125 C-381.66617676 437.34478027 -381.73079102 438.4512793 -381.79736328 439.59130859 C-382.62699784 454.46942167 -382.6566497 469.18519065 -381.78417969 484.06103516 C-381.66164698 486.19290767 -381.55045932 488.32546028 -381.45019531 490.45849609 C-380.62451328 508.0160723 -377.90747628 524.69951732 -374.296875 541.859375 C-373.31363879 546.63746108 -372.44278691 551.43340535 -371.6015625 556.23828125 C-370.9415625 556.23828125 -370.2815625 556.23828125 -369.6015625 556.23828125 C-368.80715178 554.36444222 -368.01616276 552.48915239 -367.2265625 550.61328125 C-366.78570312 549.56914063 -366.34484375 548.525 -365.890625 547.44921875 C-364.66968057 544.40795718 -363.63628591 541.34655753 -362.6015625 538.23828125 C-361.82766503 536.33512523 -361.03555394 534.43928674 -360.2265625 532.55078125 C-358.18429588 527.70563846 -356.32835369 522.82645375 -354.5625 517.875 C-353.6485365 515.36717333 -352.67195276 512.89712817 -351.6640625 510.42578125 C-349.53299376 505.16522969 -347.64597573 499.82551222 -345.75 494.4765625 C-343.27146516 487.48776867 -340.558061 480.60677752 -337.79321289 473.72680664 C-336.52881601 470.57583685 -335.27532071 467.4241964 -334.1015625 464.23828125 C-332.678061 460.37449145 -331.13700183 456.55856189 -329.6015625 452.73828125 C-326.91775988 446.06677635 -326.91775988 446.06677635 -324.3984375 439.33203125 C-323.72549599 437.56391042 -322.99053748 435.81957948 -322.2421875 434.08203125 C-321.76265625 432.93734375 -321.283125 431.79265625 -320.7890625 430.61328125 C-320.32886719 429.54851562 -319.86867188 428.48375 -319.39453125 427.38671875 C-318.06571176 422.11071624 -320.36707787 418.34156078 -323.0390625 413.86328125 C-325.01722019 410.40871432 -326.48538441 407.04378227 -327.80859375 403.30078125 C-329.01078466 400.17390045 -330.56144327 397.24573572 -332.0859375 394.265625 C-333.97301453 390.49633455 -335.75602841 386.68262611 -337.5390625 382.86328125 C-339.92232387 377.75949398 -342.35650528 372.69546445 -344.9140625 367.67578125 C-346.50009317 364.54624084 -347.94635137 361.48783167 -349.1015625 358.17578125 C-350.6314559 353.79680493 -352.91136939 349.87421875 -355.19921875 345.8515625 C-356.53558236 343.36123588 -357.56028939 340.86140331 -358.6015625 338.23828125 C-359.55980503 336.87462842 -360.54877425 335.53033956 -361.6015625 334.23828125 Z M35.3984375 351.23828125 C31.50169329 360.51410464 27.76832489 369.78765629 24.453125 379.2890625 C23.63003994 381.5906522 22.76419126 383.8190318 21.7734375 386.05078125 C20.7093939 388.51742778 19.83960214 390.87753389 19.0234375 393.42578125 C17.82832744 397.11804233 16.41455663 400.66586881 14.8984375 404.23828125 C13.13275888 408.40549299 11.57925858 412.55767122 10.1953125 416.86328125 C8.67813787 421.3850566 6.9063317 425.81272472 5.17236328 430.25488281 C4.28574438 432.52708847 3.40252773 434.80060301 2.51953125 437.07421875 C0.81463812 441.4630738 -0.8928945 445.85089453 -2.6015625 450.23828125 C15.50625165 448.90229836 15.50625165 448.90229836 33.5859375 447.23828125 C41.88895887 446.40549677 50.19417472 445.86061466 58.5234375 445.36328125 C70.95673762 444.60312534 83.36493041 443.62109621 95.7711792 442.50238037 C97.72748677 442.32663153 99.68407438 442.15397178 101.64093018 441.98443604 C104.39045611 441.74495723 107.13860883 441.49343658 109.88671875 441.23828125 C110.718582 441.16745331 111.55044525 441.09662537 112.40751648 441.02365112 C116.86819529 440.73376921 116.86819529 440.73376921 120.3984375 438.23828125 C119.54121094 437.39265625 118.68398438 436.54703125 117.80078125 435.67578125 C116.64569571 434.53008665 115.49075565 433.38424537 114.3359375 432.23828125 C113.77455078 431.68527344 113.21316406 431.13226563 112.63476562 430.5625 C109.65401236 427.59877961 106.79683276 424.58449604 104.05859375 421.39453125 C99.91368951 416.59741838 95.41458748 412.18308605 90.8984375 407.73828125 C81.80106422 398.78462635 81.80106422 398.78462635 77.9296875 394.26953125 C73.68655704 389.3266046 69.03660024 384.80721768 64.3984375 380.23828125 C59.06714843 374.98656366 53.8487084 369.72885005 48.97558594 364.046875 C46.60183195 361.32477445 44.08105629 358.78881522 41.5234375 356.23828125 C41.03875 355.74972656 40.5540625 355.26117188 40.0546875 354.7578125 C38.07039453 352.31079449 38.07039453 352.31079449 35.3984375 351.23828125 Z M409.3984375 358.23828125 C409.19089844 358.77453125 408.98335937 359.31078125 408.76953125 359.86328125 C405.53705707 368.08647918 401.96206517 376.1552494 398.3984375 384.23828125 C394.73484204 392.56057078 391.0852732 400.88240214 387.63671875 409.296875 C386.61728149 411.71844048 385.56501527 414.11757001 384.4921875 416.515625 C382.44571905 421.10026755 380.51134352 425.72682616 378.5859375 430.36328125 C376.07184563 436.38953344 373.46007239 442.34504544 370.6484375 448.23828125 C368.22452775 453.32297366 366.1409285 458.44152746 364.2890625 463.76171875 C362.52507897 468.66683085 360.34408358 473.39594624 357.96484375 478.03125 C355.05317698 483.53252675 355.05317698 483.53252675 354.8984375 489.55078125 C355.6409375 490.88109375 355.6409375 490.88109375 356.3984375 492.23828125 C357.95145959 495.31807716 359.48253298 498.4083048 361.01171875 501.5 C363.77670719 507.07447095 366.56587592 512.60853829 369.5859375 518.05078125 C371.726211 521.92473276 373.60055128 525.82494682 375.3515625 529.88671875 C377.51956441 534.75663348 379.99517002 539.48146906 382.3984375 544.23828125 C383.37314776 546.18313994 384.34574361 548.12904444 385.31787109 550.07519531 C386.33977638 552.12096638 387.36324914 554.16594868 388.38671875 556.2109375 C389.68126109 558.79940129 390.97033737 561.3904533 392.25390625 563.984375 C395.81400553 571.15958613 399.49988278 578.24087534 403.3984375 585.23828125 C409.8289128 573.2141135 412.63307951 557.88715443 414.984375 544.52441406 C415.51248856 541.60857954 416.0806264 538.70133058 416.6484375 535.79296875 C420.0531617 518.84385088 420.0531617 518.84385088 421.8984375 501.67578125 C421.970625 500.41636719 422.0428125 499.15695312 422.1171875 497.859375 C422.15739014 497.15159912 422.19759277 496.44382324 422.23901367 495.71459961 C422.35773561 493.87050072 422.49652172 492.02767211 422.64575195 490.18579102 C423.38758483 480.87595469 423.59511561 471.63351435 423.5859375 462.30078125 C423.5866626 461.54147308 423.5873877 460.78216492 423.58813477 459.99984741 C423.58693189 448.53358293 423.0761527 437.22742097 421.8359375 425.8203125 C421.5251248 422.9606013 421.41716457 420.38129489 421.48046875 417.484375 C421.56110578 411.40084334 420.18942166 405.4451986 419.0859375 399.48828125 C418.87259766 398.28945313 418.65925781 397.090625 418.43945312 395.85546875 C417.22070605 389.14690276 415.80554276 382.5409442 414.06396484 375.94824219 C413.14367334 372.20090703 412.5211625 368.42372122 411.92578125 364.61328125 C411.39492274 362.22245183 410.58729293 360.3693416 409.3984375 358.23828125 Z M-273.6015625 452.23828125 C-277.24056747 460.46668424 -280.55014629 468.68681399 -283.51171875 477.18359375 C-284.34607765 479.5221911 -285.21886985 481.7847781 -286.2265625 484.05078125 C-287.28105716 486.4952916 -288.15834662 488.84044895 -288.9765625 491.36328125 C-291.93215676 500.41288428 -295.57212608 509.2035968 -299.2265625 517.98828125 C-301.31704447 523.0144043 -303.29414266 528.01509077 -304.9296875 533.2109375 C-305.99183175 536.41589602 -307.29686886 539.51880594 -308.5703125 542.64453125 C-309.61911654 545.28243232 -310.58627213 547.93932119 -311.5390625 550.61328125 C-313.31748853 555.56497726 -315.32332294 560.39684671 -317.37109375 565.2421875 C-318.93250053 569.0440891 -320.33413441 572.89230328 -321.70703125 576.765625 C-322.32872636 578.48410972 -323.00221229 580.18437707 -323.71484375 581.8671875 C-324.77670139 584.28469201 -324.77670139 584.28469201 -324.6015625 587.23828125 C-318.32875497 590.74680072 -311.98561118 594.06399977 -305.5390625 597.23828125 C-300.16027157 599.8895136 -294.96667942 602.67603207 -289.91015625 605.9140625 C-287.61650398 607.22971075 -285.27647931 608.21866994 -282.84008789 609.2355957 C-277.47791812 611.63743137 -272.31024363 614.46090362 -267.1015625 617.17578125 C-265.80511193 617.84931152 -264.50856119 618.52264901 -263.21191406 619.19580078 C-259.95275732 620.88863282 -256.69520716 622.58452948 -253.43823242 624.28155518 C-250.68611085 625.71514236 -247.93279086 627.1464244 -245.1796875 628.578125 C-230.60622729 636.16442467 -230.60622729 636.16442467 -223.578125 639.91015625 C-222.79727539 640.32604004 -222.01642578 640.74192383 -221.21191406 641.17041016 C-219.77762783 641.93580143 -218.3445711 642.70350378 -216.91308594 643.47412109 C-213.53985713 645.27610371 -210.18792309 646.90541927 -206.6015625 648.23828125 C-204.4823939 640.13194698 -202.49105707 632.11457438 -201.23046875 623.82421875 C-200.17802383 617.82332161 -198.80352165 611.88913711 -197.45336914 605.94897461 C-196.33258889 600.93550367 -195.37584188 595.94742907 -194.6328125 590.86328125 C-193.62525779 584.04964193 -192.15445477 577.3831996 -190.6015625 570.67578125 C-188.8740307 563.18838475 -187.3087312 555.73631575 -186.09765625 548.14770508 C-185.27896513 543.34635563 -184.17999698 538.6117212 -183.1015625 533.86328125 C-181.73419867 527.73241936 -180.41994297 521.66763954 -179.6640625 515.42578125 C-178.66273152 507.39549946 -176.65878301 499.58613384 -174.72094727 491.73706055 C-173.07043039 484.8997957 -172.0162681 478.26197378 -171.6015625 471.23828125 C-174.79628336 469.64092082 -178.34489449 469.49114145 -181.8515625 468.98828125 C-189.29507229 467.87680694 -196.59065638 466.40593911 -203.9140625 464.67578125 C-209.79863682 463.28701363 -215.5945328 461.99185128 -221.6015625 461.23828125 C-227.60869984 460.48469771 -233.40426153 459.18885855 -239.2890625 457.80078125 C-246.57058811 456.08884944 -253.83512841 454.58179435 -261.2265625 453.42578125 C-262.40738403 453.2402771 -262.40738403 453.2402771 -263.61206055 453.05102539 C-266.99605775 452.54363086 -270.17100873 452.23828125 -273.6015625 452.23828125 Z M-120.6015625 485.23828125 C-123.08279725 496.96900778 -125.53361047 508.69981107 -127.7265625 520.48828125 C-128.90701647 526.83278085 -130.25358996 533.070227 -131.90893555 539.31079102 C-132.59877537 542.22650102 -133.05495472 545.09530681 -133.46484375 548.0625 C-134.64988352 555.98255316 -136.39499762 563.7456561 -138.1640625 571.55078125 C-138.64212428 573.66313033 -139.11876461 575.77574673 -139.59080505 577.88945007 C-140.01601989 579.79339601 -140.44643336 581.6961788 -140.87719727 583.59887695 C-141.38927439 586.17168911 -141.79719225 588.63298621 -142.09936523 591.22729492 C-142.55440764 595.12762894 -143.33021886 598.90573827 -144.1953125 602.73828125 C-144.34689819 603.41826172 -144.49848389 604.09824219 -144.65466309 604.79882812 C-145.29437833 607.66791397 -145.94272803 610.53503012 -146.59033203 613.40234375 C-147.06585714 615.51365605 -147.53691402 617.62593304 -148.0078125 619.73828125 C-148.28947266 620.98609375 -148.57113281 622.23390625 -148.86132812 623.51953125 C-149.6395537 627.42913944 -150.14122347 631.27993548 -150.6015625 635.23828125 C-150.93786416 637.24136268 -151.28975103 639.24195338 -151.6640625 641.23828125 C-151.84066406 642.18703125 -152.01726562 643.13578125 -152.19921875 644.11328125 C-152.33199219 644.81453125 -152.46476562 645.51578125 -152.6015625 646.23828125 C-144.85672236 644.794328 -137.90964482 642.13589987 -130.6015625 639.23828125 C-128.06202947 638.27363177 -125.52119955 637.31421174 -122.9765625 636.36328125 C-122.31688477 636.11626465 -121.65720703 635.86924805 -120.97753906 635.61474609 C-110.62392313 631.74384399 -100.25805985 627.90232785 -89.8515625 624.17578125 C-85.66885508 622.66124158 -81.5391378 621.02706162 -77.4140625 619.36328125 C-69.52712701 616.18248417 -61.57758343 613.18753334 -53.6015625 610.23828125 C-52.8163623 609.94775879 -52.03116211 609.65723633 -51.22216797 609.35791016 C-42.02522899 605.95749889 -32.82210124 602.57425145 -23.6015625 599.23828125 C-25.17583602 592.02660922 -27.71101937 585.55648894 -30.90795898 578.93383789 C-33.84146667 572.83297541 -36.24978379 566.58496883 -38.6015625 560.23828125 C-42.06410826 551.10282247 -45.70450016 542.06476325 -49.52099609 533.07177734 C-50.54925598 530.64870429 -51.57579516 528.22491049 -52.6015625 525.80078125 C-53.11867798 524.58056274 -53.11867798 524.58056274 -53.64624023 523.33569336 C-56.11505569 517.47835376 -58.41758721 511.58240922 -60.59375 505.609375 C-61.48233294 503.10806968 -61.48233294 503.10806968 -63.6015625 501.23828125 C-66.18078528 500.37265169 -68.73412215 499.59313347 -71.3515625 498.86328125 C-72.12016602 498.64269043 -72.88876953 498.42209961 -73.68066406 498.19482422 C-77.1493751 497.20160944 -80.62420022 496.23201545 -84.1015625 495.26953125 C-89.44200509 493.78036937 -94.71594309 492.21838506 -99.96484375 490.43359375 C-100.90553711 490.11374512 -101.84623047 489.79389648 -102.81542969 489.46435547 C-104.68187226 488.82482535 -106.54592381 488.17826415 -108.40722656 487.52392578 C-109.6964502 487.08089111 -109.6964502 487.08089111 -111.01171875 486.62890625 C-111.77621338 486.36110352 -112.54070801 486.09330078 -113.32836914 485.81738281 C-115.83004702 485.18007426 -118.03033756 485.1373043 -120.6015625 485.23828125 Z M133.2109375 490.99609375 C124.23696019 491.95077219 115.26475549 492.58652389 106.2578125 493.15234375 C90.92831098 494.12781394 75.67318374 495.62727286 60.3984375 497.23828125 C43.60360644 499.00961109 26.83637611 500.59230587 9.97851562 501.59204102 C8.20444336 501.69923462 8.20444336 501.69923462 6.39453125 501.80859375 C5.35482178 501.86805176 4.3151123 501.92750977 3.24389648 501.98876953 C0.56315511 502.22383754 -1.97707921 502.65399077 -4.6015625 503.23828125 C-1.66018691 510.92925512 1.31874791 518.60165259 4.3984375 526.23828125 C6.55822576 531.59385377 8.67231387 536.96026243 10.7109375 542.36328125 C12.94956803 548.22404379 15.41672054 553.96128762 17.98754883 559.68212891 C19.68401737 563.48341266 21.09290105 567.28930322 22.3984375 571.23828125 C23.57814567 573.90527828 24.82692241 576.531875 26.08203125 579.1640625 C27.77262318 583.11212139 29.08996556 587.1503644 30.3984375 591.23828125 C31.00091309 591.33850586 31.60338867 591.43873047 32.22412109 591.54199219 C43.20559928 593.38022786 54.12865393 595.3058312 64.97924805 597.80981445 C69.82828838 598.91880241 74.68083525 599.85206356 79.5859375 600.67578125 C86.4062754 601.8232407 93.14702364 603.23938002 99.8984375 604.73828125 C106.54635217 606.21372652 113.18176979 607.61448082 119.8984375 608.73828125 C127.61925852 610.03009177 135.23876218 611.70377304 142.87963867 613.40014648 C149.31711547 614.81779351 155.75815622 616.05298592 162.2578125 617.14453125 C167.34560235 618.01365466 172.36725061 619.08823403 177.3984375 620.23828125 C183.50355085 621.62499038 189.61570023 622.91814046 195.7734375 624.05078125 C196.48113281 624.18677734 197.18882812 624.32277344 197.91796875 624.46289062 C201.43199861 625.08966203 203.98979944 625.24425428 207.3984375 624.23828125 C207.21780762 623.6963916 207.03717773 623.15450195 206.85107422 622.59619141 C206.30537109 620.95908203 205.75972195 619.32195466 205.21411133 617.68481445 C204.58152582 615.78738629 203.94854385 613.89009026 203.31518555 611.99291992 C201.78043961 607.39406044 200.2499218 602.79401118 198.73828125 598.1875 C195.26237286 587.61973078 195.26237286 587.61973078 191.16015625 577.28125 C190.3984375 575.23828125 190.3984375 575.23828125 190.01171875 573.0390625 C189.11034087 568.9225788 187.47479177 565.13801712 185.8984375 561.23828125 C184.01081442 556.56849885 182.34054565 552.19593236 181.3984375 547.23828125 C180.43308823 544.16979465 179.35172979 541.14362929 178.2734375 538.11328125 C177.9643042 537.23599365 177.6551709 536.35870605 177.33666992 535.45483398 C174.90475818 528.58337667 172.3729203 521.7508567 169.82275391 514.92260742 C167.75503044 509.33787111 165.94273091 503.73203484 164.3203125 498 C163.28806357 494.90762714 161.91408659 492.12056898 160.3984375 489.23828125 C151.23923016 488.97846419 142.30252111 489.98362194 133.2109375 490.99609375 Z M219.3984375 495.23828125 C220.49488147 502.79156193 222.89911059 509.37798683 225.72216797 516.41601562 C227.9342703 521.95721105 229.8200654 527.5215959 231.51171875 533.24609375 C233.82223028 541.04279786 236.55324464 548.70227654 239.2734375 556.36328125 C242.43869317 565.28146864 245.42776359 574.25376196 248.3984375 583.23828125 C252.30830625 595.05408933 256.23074673 606.8636089 260.3359375 618.61328125 C260.77764282 619.87954346 260.77764282 619.87954346 261.22827148 621.17138672 C262.64435509 625.27432136 262.64435509 625.27432136 264.3984375 629.23828125 C269.6595892 628.14976711 274.80156295 626.86440512 279.9609375 625.36328125 C285.84506805 623.65211247 291.75339458 622.12883843 297.70385742 620.67285156 C302.1722847 619.57061404 306.55909808 618.30487431 310.95043945 616.93334961 C313.31431119 616.26216752 315.6421123 615.77956537 318.05859375 615.33984375 C323.31274582 614.31324835 328.35730102 612.84035517 333.4609375 611.23828125 C339.73605827 609.27760933 345.9611852 607.58666844 352.3984375 606.23828125 C351.85072423 601.22400487 350.15466241 597.27366197 347.8359375 592.86328125 C347.10525455 591.43891195 346.37479192 590.0144296 345.64453125 588.58984375 C345.08354736 587.50558105 345.08354736 587.50558105 344.51123047 586.39941406 C342.77531241 583.02812255 341.08819266 579.63287492 339.3984375 576.23828125 C338.73203161 574.90481756 338.06536423 573.57148452 337.3984375 572.23828125 C325.3984375 548.23828125 325.3984375 548.23828125 324.39794922 546.23681641 C323.73343127 544.90810514 323.06839497 543.57965298 322.40283203 542.25146484 C320.69887248 538.8493898 319.00509619 535.44281188 317.328125 532.02734375 C316.81185547 530.98126953 316.81185547 530.98126953 316.28515625 529.9140625 C315.6410662 528.60847455 315.00009286 527.30134099 314.36328125 525.9921875 C313.74971147 524.7518812 313.11885654 523.51999568 312.47216797 522.29663086 C311.67075149 520.76030928 310.92284857 519.19585328 310.20361328 517.61938477 C307.62839652 512.42946477 307.62839652 512.42946477 303.05517578 509.1484375 C300.20161522 508.51723516 297.43473927 508.18028288 294.5234375 507.92578125 C292.37042859 507.65630382 290.21809287 507.38140197 288.06640625 507.1015625 C286.96474121 506.96830566 285.86307617 506.83504883 284.72802734 506.69775391 C279.36808932 505.95809975 274.11576808 504.78255784 268.8359375 503.61328125 C261.27298655 501.98138102 253.82608355 500.6709457 246.140625 499.7734375 C240.61408599 498.98310781 235.18610228 497.78171552 229.7409668 496.55834961 C228.97437744 496.38827393 228.20778809 496.21819824 227.41796875 496.04296875 C226.73839111 495.88812012 226.05881348 495.73327148 225.35864258 495.57373047 C223.07277342 495.12582953 223.07277342 495.12582953 219.3984375 495.23828125 Z M-340.6015625 639.23828125 C-339.13036149 644.29700986 -336.91217895 648.52805547 -334.2890625 653.05078125 C-333.46977733 654.48161354 -332.65076443 655.91260178 -331.83203125 657.34375 C-331.44192871 658.02228027 -331.05182617 658.70081055 -330.64990234 659.39990234 C-329.43185693 661.53587858 -328.26435413 663.69681685 -327.1015625 665.86328125 C-324.9004077 669.83609722 -322.48357112 673.66230881 -320.0390625 677.48828125 C-319.66265625 678.07947754 -319.28625 678.67067383 -318.8984375 679.27978516 C-317.17008241 681.95646139 -315.3932166 684.49549841 -313.38671875 686.97265625 C-311.6015625 689.23828125 -311.6015625 689.23828125 -310.6015625 692.23828125 C-309.9415625 692.23828125 -309.2815625 692.23828125 -308.6015625 692.23828125 C-308.36566406 692.93695312 -308.12976563 693.635625 -307.88671875 694.35546875 C-306.37441838 697.74780209 -304.33196092 700.47673248 -302.0390625 703.36328125 C-301.59723633 703.92805176 -301.15541016 704.49282227 -300.70019531 705.07470703 C-296.41565066 710.52901494 -292.04006857 715.90864655 -287.6015625 721.23828125 C-287.05757812 721.89570312 -286.51359375 722.553125 -285.953125 723.23046875 C-282.83010917 726.94834473 -279.51426481 730.38651324 -276.01953125 733.7578125 C-274.6015625 735.23828125 -274.6015625 735.23828125 -273.6015625 737.23828125 C-272.9415625 737.23828125 -272.2815625 737.23828125 -271.6015625 737.23828125 C-271.39789063 737.76808594 -271.19421875 738.29789063 -270.984375 738.84375 C-269.00085756 742.27848501 -266.30023609 744.79117353 -263.4765625 747.55078125 C-262.89197266 748.12820068 -262.30738281 748.70562012 -261.70507812 749.30053711 C-256.62175683 754.28907272 -251.41347066 759.05124157 -245.7890625 763.42578125 C-243.6015625 765.23828125 -243.6015625 765.23828125 -242.0390625 767.36328125 C-240.74118569 769.33945569 -240.74118569 769.33945569 -238.7265625 770.17578125 C-236.6015625 771.23828125 -236.6015625 771.23828125 -234.55859375 773.36328125 C-230.82550865 777.17522469 -226.47005072 780.1748791 -222.1640625 783.30078125 C-221.33068359 783.91244141 -220.49730469 784.52410156 -219.63867188 785.15429688 C-212.66683623 791.14073838 -212.66683623 791.14073838 -204.6015625 794.23828125 C-204.6015625 794.89828125 -204.6015625 795.55828125 -204.6015625 796.23828125 C-202.11054 797.95478415 -199.62434964 799.55072004 -197.0390625 801.11328125 C-196.33458984 801.54769531 -195.63011719 801.98210937 -194.90429688 802.4296875 C-192.81192236 803.71403905 -190.70973044 804.98004466 -188.6015625 806.23828125 C-187.60213623 806.83817871 -187.60213623 806.83817871 -186.58251953 807.45019531 C-183.31418226 809.54084733 -183.31418226 809.54084733 -179.6015625 810.23828125 C-180.84296077 802.66575183 -182.99126363 795.54989069 -185.39306641 788.2800293 C-186.88590305 783.71406693 -188.0857494 779.19378992 -189.07861328 774.49536133 C-189.99398437 770.54456503 -191.27911788 766.71521326 -192.5390625 762.86328125 C-194.47153842 756.86191512 -196.29267805 750.86602248 -197.890625 744.765625 C-198.69009335 741.92355893 -199.63648159 739.1533084 -200.6015625 736.36328125 C-202.04421958 732.14460222 -203.16046403 727.97097633 -204.1015625 723.61328125 C-206.42322665 712.18604577 -206.42322665 712.18604577 -213.9140625 703.80078125 C-217.64732607 701.55546115 -221.59940042 699.94552724 -225.6015625 698.23828125 C-227.94725792 697.11158727 -230.27809735 695.97118234 -232.6015625 694.80078125 C-233.60884399 694.29514648 -233.60884399 694.29514648 -234.63647461 693.77929688 C-247.36133761 687.36057328 -259.98430331 680.7331072 -272.5390625 673.98828125 C-281.50000496 669.17888898 -290.61792136 664.68454014 -299.74609375 660.203125 C-305.7961561 657.22110375 -311.75467591 654.21838287 -317.5390625 650.73828125 C-324.93425096 646.30935096 -332.76855456 642.81139506 -340.6015625 639.23828125 Z M32.3984375 645.23828125 C31.76764425 648.44550223 31.1449663 651.65425314 30.5234375 654.86328125 C30.26240234 656.18972656 30.26240234 656.18972656 29.99609375 657.54296875 C29.00751846 662.66891469 28.16299804 667.78812629 27.45703125 672.9609375 C26.37870701 680.71935305 24.87815128 688.37520847 23.3359375 696.05078125 C21.27891157 705.81326168 21.27891157 705.81326168 19.90625 715.68359375 C19.24902584 722.6273099 17.68956237 729.46556078 16.3359375 736.30078125 C16.05109751 737.75318959 15.76658962 739.20566311 15.48242188 740.65820312 C14.79158729 744.18565536 14.0962637 747.71220464 13.3984375 751.23828125 C14.30335938 751.59615723 15.20828125 751.9540332 16.140625 752.32275391 C24.26374504 755.54059058 32.3377496 758.86716166 40.3984375 762.23828125 C48.07572825 765.44810642 55.76489016 768.61171697 63.5 771.6796875 C69.44922759 774.04704361 75.36612338 776.49453066 81.29003906 778.92431641 C86.44099298 781.03491223 91.59901017 783.12345221 96.7734375 785.17578125 C104.4495358 788.22916257 112.06169908 791.4322666 119.68139648 794.62329102 C126.00449741 797.26356875 132.34604685 799.80398983 138.76171875 802.2109375 C142.10686954 803.51430736 145.35457402 804.99281434 148.59375 806.5390625 C150.54209874 807.41891985 150.54209874 807.41891985 153.3984375 807.23828125 C155.87955441 801.88964398 158.31640249 796.54455021 160.4609375 791.05078125 C161.87226979 787.46644527 163.44161377 784.04989825 165.19921875 780.625 C169.34689746 772.37017365 173.1761718 763.99539819 176.49609375 755.375 C177.36714995 753.31236909 178.36900665 751.4663753 179.5234375 749.55078125 C181.50187711 746.37061436 181.50187711 746.37061436 182.2734375 743.05078125 C183.62451529 738.47212873 185.70436123 734.53216497 187.8828125 730.296875 C189.63005951 726.77085848 191.06131286 723.18226043 192.48046875 719.515625 C193.57532083 716.79946005 194.86308482 714.22861276 196.19921875 711.625 C200.69281108 702.68172667 204.81352554 693.5828385 208.3984375 684.23828125 C209.06307906 682.57080597 209.72925245 680.90393836 210.3984375 679.23828125 C209.57158447 679.09579956 209.57158447 679.09579956 208.72802734 678.95043945 C198.0329189 677.09296082 187.40713355 675.08715625 176.8359375 672.61328125 C170.23106593 671.06838582 163.70423318 669.75341368 156.98046875 668.828125 C151.99379031 668.00698166 147.080783 666.89765517 142.1484375 665.80078125 C135.41718517 664.30386581 128.7004754 662.87361651 121.8984375 661.73828125 C114.15492645 660.44580372 106.50733109 658.78269901 98.85351562 657.0390625 C93.93039265 655.93494124 89.03242403 655.00301641 84.0390625 654.2734375 C76.09190424 653.09736633 68.32414363 651.26704148 60.50390625 649.44921875 C46.59576293 646.1802649 46.59576293 646.1802649 32.3984375 645.23828125 Z M-33.2265625 658.55078125 C-38.15173068 660.8061881 -43.0479112 662.79005904 -48.20458984 664.4543457 C-52.70591187 665.92651366 -57.1496216 667.56164522 -61.6015625 669.17578125 C-62.53484375 669.51029297 -63.468125 669.84480469 -64.4296875 670.18945312 C-69.55963483 672.0487008 -74.5611572 674.05911229 -79.52832031 676.31616211 C-82.62921369 677.69535126 -85.79430706 678.87355029 -88.9765625 680.05078125 C-89.64647217 680.29940918 -90.31638184 680.54803711 -91.0065918 680.80419922 C-93.20379906 681.61861392 -95.40261131 682.42858809 -97.6015625 683.23828125 C-99.22530855 683.83841146 -100.84900531 684.43867504 -102.47265625 685.0390625 C-109.09059384 687.48337285 -115.7096268 689.92231691 -122.3515625 692.30078125 C-127.29126226 694.08797076 -132.15952015 696.04572269 -137.02709961 698.01879883 C-141.81369042 699.9507917 -146.6421024 701.71398095 -151.52734375 703.37890625 C-153.77246925 704.15411779 -153.77246925 704.15411779 -155.6015625 706.23828125 C-155.19164062 707.43324219 -154.78171875 708.62820313 -154.359375 709.859375 C-153.81485832 711.46476038 -153.2706014 713.07023389 -152.7265625 714.67578125 C-152.32244141 715.85043945 -152.32244141 715.85043945 -151.91015625 717.04882812 C-150.35152163 721.66770876 -149.11778554 726.2347905 -148.11572266 731.00317383 C-147.22734875 734.86502716 -145.9628774 738.60135164 -144.7265625 742.36328125 C-142.43296317 749.46619768 -140.40620332 756.57729658 -138.5390625 763.8046875 C-137.36423555 768.1074912 -135.93072311 772.29692511 -134.4765625 776.51171875 C-133.44035829 779.74060509 -132.71210517 782.96923502 -132.09375 786.30078125 C-131.54222435 788.47186634 -130.66353783 790.27231039 -129.6015625 792.23828125 C-125.65917172 791.65081548 -122.84612819 790.42824203 -119.4140625 788.42578125 C-115.96620532 786.48636159 -112.615385 784.75752942 -108.9140625 783.36328125 C-104.22468013 781.57649086 -99.77137148 779.421252 -95.2890625 777.17578125 C-94.60690674 776.83498535 -93.92475098 776.49418945 -93.22192383 776.14306641 C-90.38108605 774.70743811 -87.61544966 773.24668559 -84.890625 771.59765625 C-82.71172084 770.30369951 -80.66467175 769.41578995 -78.2890625 768.55078125 C-73.01773681 766.49995484 -67.99790665 764.0560641 -63.00341797 761.40966797 C-59.37699095 759.51181231 -55.88784227 757.94772845 -51.96875 756.75 C-47.35267642 755.23025257 -43.05345452 753.78583059 -39.6015625 750.23828125 C-36.04085801 743.15038135 -35.46814534 735.01504184 -34.6015625 727.23828125 C-33.18103426 716.21830369 -31.09152778 705.40762058 -28.8125 694.53710938 C-27.25216258 686.94425533 -25.99983013 679.40648034 -25.04345703 671.71630859 C-24.34340402 666.2063886 -23.47107514 660.723611 -22.6015625 655.23828125 C-26.62025795 655.23828125 -29.64423554 656.90529465 -33.2265625 658.55078125 Z M364.08203125 657.375 C363.24510742 657.62008301 362.40818359 657.86516602 361.54589844 658.11767578 C360.65161133 658.38435059 359.75732422 658.65102539 358.8359375 658.92578125 C356.93403861 659.48069364 355.03168453 660.03404803 353.12890625 660.5859375 C351.689104 661.00383545 351.689104 661.00383545 350.22021484 661.43017578 C340.20558451 664.29818291 330.11850494 666.86903045 319.9609375 669.17578125 C312.70759705 670.82329263 305.61592082 672.89399822 298.52368164 675.13256836 C291.65272716 677.27244659 284.77402772 678.78212041 277.640625 679.74609375 C271.15285082 680.89757396 271.15285082 680.89757396 266.05859375 684.828125 C263.19605055 689.34249641 261.27538901 694.25282575 259.3984375 699.23828125 C259.00527344 700.19089844 258.61210938 701.14351562 258.20703125 702.125 C257.55631099 703.70969521 256.92390125 705.30206743 256.3125 706.90234375 C252.01290701 717.89019249 246.58115483 728.51349963 241.53515625 739.1796875 C238.5988919 745.40238426 235.77846389 751.62689393 233.29296875 758.046875 C232.42422686 760.17510295 231.4503897 762.19530073 230.3984375 764.23828125 C228.52741018 767.87880727 227.01858535 771.60220158 225.5234375 775.41015625 C221.99604223 784.27763603 218.1202573 792.90672118 213.78515625 801.40625 C211.27405311 806.53455922 209.20326452 811.8238002 207.3984375 817.23828125 C213.34914581 816.04813959 217.6087187 813.35714633 222.64453125 810.02734375 C225.00165233 808.49605091 227.3584657 807.12269905 229.8359375 805.80078125 C239.57089913 800.49080218 248.4858178 793.80144246 257.3984375 787.23828125 C259.29359266 785.86234668 261.18942223 784.48734052 263.0859375 783.11328125 C266.36353938 780.72658689 269.63987684 778.33842671 272.8984375 775.92578125 C273.506875 775.47589844 274.1153125 775.02601563 274.7421875 774.5625 C276.42074045 773.22044941 277.88646131 771.76275311 279.3984375 770.23828125 C280.1203125 769.72265625 280.8421875 769.20703125 281.5859375 768.67578125 C282.1840625 768.20140625 282.7821875 767.72703125 283.3984375 767.23828125 C283.3984375 766.57828125 283.3984375 765.91828125 283.3984375 765.23828125 C283.99140625 764.96677246 284.584375 764.69526367 285.1953125 764.41552734 C287.35956586 763.25905242 288.86846804 762.07700555 290.6484375 760.40234375 C291.25163818 759.83805664 291.85483887 759.27376953 292.47631836 758.69238281 C293.11061768 758.0887793 293.74491699 757.48517578 294.3984375 756.86328125 C295.05400635 756.24420898 295.7095752 755.62513672 296.38500977 754.98730469 C298.39732958 753.07897381 300.40001328 751.16115348 302.3984375 749.23828125 C303.0157373 748.6443457 303.63303711 748.05041016 304.26904297 747.43847656 C305.96627322 745.79659583 307.65362471 744.14543124 309.3359375 742.48828125 C309.84962891 741.9876416 310.36332031 741.48700195 310.89257812 740.97119141 C312.1010988 739.76560403 313.25578715 738.50647418 314.3984375 737.23828125 C314.3984375 736.57828125 314.3984375 735.91828125 314.3984375 735.23828125 C315.3884375 734.90828125 316.3784375 734.57828125 317.3984375 734.23828125 C318.77195496 732.66451792 320.07722421 731.03029118 321.3359375 729.36328125 C323.81660287 726.08440564 326.07824485 723.64207253 329.3984375 721.23828125 C330.41709979 719.58295502 331.41654563 717.91567987 332.3984375 716.23828125 C333.1203125 715.53703125 333.8421875 714.83578125 334.5859375 714.11328125 C336.74594855 712.31342552 336.74594855 712.31342552 336.3984375 709.23828125 C337.3884375 708.90828125 338.3784375 708.57828125 339.3984375 708.23828125 C341.08078771 706.12357881 342.62620252 704.02565287 344.1484375 701.80078125 C344.5930835 701.16333984 345.03772949 700.52589844 345.49584961 699.86914062 C346.39138438 698.5843062 347.2839249 697.29737917 348.17333984 696.00830078 C349.74652036 693.73537158 351.3563992 691.48914411 352.9609375 689.23828125 C364.15652355 673.53649491 364.15652355 673.53649491 372.3984375 656.23828125 C369.06507542 656.23828125 367.16484654 656.45779597 364.08203125 657.375 Z M-22.3515625 799.55078125 C-29.21518983 803.06270261 -36.13698508 806.43121105 -43.1015625 809.73828125 C-49.91263776 812.9754822 -56.68998161 816.26157824 -63.4140625 819.67578125 C-68.30653408 822.15629005 -73.2231311 824.3733989 -78.34765625 826.33203125 C-81.48556992 827.59372271 -84.45618835 829.12730463 -87.46484375 830.66796875 C-91.8528632 832.86471074 -96.28952991 834.95518634 -100.7265625 837.05078125 C-101.59337646 837.46030029 -102.46019043 837.86981934 -103.35327148 838.29174805 C-105.43563417 839.27477969 -107.5183764 840.25699602 -109.6015625 841.23828125 C-109.6015625 841.89828125 -109.6015625 842.55828125 -109.6015625 843.23828125 C-106.63262039 844.15930344 -103.66177922 845.07286359 -100.6875 845.9765625 C-97.95025643 846.81231653 -95.2308817 847.68930452 -92.515625 848.59375 C-70.54913778 855.74234763 -46.9774743 860.50498233 -23.92285156 862.06005859 C-21.48168839 862.24748488 -19.05739834 862.51063291 -16.625 862.7890625 C22.40062106 867.08123267 62.28034277 864.53514648 100.6484375 856.67578125 C101.63442932 856.47437531 102.62042114 856.27296936 103.6362915 856.06546021 C106.41951226 855.48958823 109.19865677 854.89781546 111.9765625 854.296875 C112.81631622 854.11982025 113.65606995 853.9427655 114.52127075 853.76034546 C116.49627237 853.31912419 118.45073827 852.78762206 120.3984375 852.23828125 C120.7284375 851.57828125 121.0584375 850.91828125 121.3984375 850.23828125 C120.50382813 849.93535156 119.60921875 849.63242187 118.6875 849.3203125 C107.60255142 845.47957872 107.60255142 845.47957872 102.3984375 842.73828125 C98.76194849 840.83818651 95.15449001 839.38343181 91.2734375 838.05078125 C82.41196604 834.99042608 73.82691949 831.2955358 65.1875 827.6640625 C58.29243859 824.76599247 51.352598 821.99146425 44.3984375 819.23828125 C41.27229252 817.99081717 38.14798924 816.73875276 35.0234375 815.48730469 C31.88874821 814.23244734 28.75264548 812.9814015 25.61328125 811.73828125 C19.46353335 809.2985478 13.34556755 806.80502029 7.2734375 804.17578125 C-7.43416319 796.74978221 -7.43416319 796.74978221 -22.3515625 799.55078125 Z " fill="#283558" transform="translate(501.6015625,59.76171875)"/>
<path d="M0 0 C0.33 0 0.66 0 1 0 C1.18189683 7.07723379 0.67502414 13.84822908 -0.3203125 20.8515625 C-0.46145477 21.86809906 -0.60259705 22.88463562 -0.74801636 23.93197632 C-1.04876348 26.07885973 -1.35319743 28.22522958 -1.66113281 30.37109375 C-2.11657439 33.56589657 -2.55113323 36.76305935 -2.984375 39.9609375 C-4.89285422 53.62558541 -7.69054927 66.85822483 -11.25694275 80.18347168 C-12.32800588 84.24329295 -13.33048535 88.31954454 -14.33323669 92.396698 C-15.14514913 95.56671839 -16.11978397 98.65730528 -17.1875 101.75 C-17.53167969 102.75546875 -17.87585938 103.7609375 -18.23046875 104.796875 C-18.48441406 105.52390625 -18.73835937 106.2509375 -19 107 C-19.33 107 -19.66 107 -20 107 C-19.45526703 101.71493114 -18.52618256 97.07383251 -16.875 92 C-8.24502953 63.69498491 -4.12692502 34.32853507 -1.4296875 4.9296875 C-1 1 -1 1 0 0 Z " fill="#2B6575" transform="translate(982,554)"/>
<path d="M0 0 C2.89852365 1.31307372 4.98277217 2.72684638 7.234375 4.96875 C8.09482422 5.82533203 8.09482422 5.82533203 8.97265625 6.69921875 C9.85244141 7.59060547 9.85244141 7.59060547 10.75 8.5 C11.35199219 9.09425781 11.95398438 9.68851562 12.57421875 10.30078125 C13.14269531 10.87183594 13.71117187 11.44289063 14.296875 12.03125 C14.81604492 12.55267578 15.33521484 13.07410156 15.87011719 13.61132812 C17 15 17 15 17 17 C15.35 17 13.7 17 12 17 C12 15.68 12 14.36 12 13 C10.05339687 10.78979436 8.1421124 8.81228737 6 6.8125 C3.98410011 4.88967657 1.98628227 2.95376872 0 1 C0 0.67 0 0.34 0 0 Z " fill="#AAB8C2" transform="translate(608,484)"/>
<path d="M0 0 C4.12767046 6.1915057 5.39590347 11.60980189 5 19 C3 18 3 18 2.1484375 15.48828125 C1.89320313 14.44027344 1.63796875 13.39226562 1.375 12.3125 C1.11460937 11.27738281 0.85421875 10.24226563 0.5859375 9.17578125 C0.00698506 6.03785903 -0.1049677 3.18242993 0 0 Z " fill="#7897A3" transform="translate(914,427)"/>
<path d="M0 0 C2 2 2 2 2 5 C2.66 5 3.32 5 4 5 C4.36504603 6.58086048 4.71660506 8.16483907 5.0625 9.75 C5.25972656 10.63171875 5.45695312 11.5134375 5.66015625 12.421875 C5.99825872 14.98679028 5.81158635 16.57091639 5 19 C4.15919981 16.58570231 3.32718598 14.16896007 2.5 11.75 C2.14228516 10.72712891 2.14228516 10.72712891 1.77734375 9.68359375 C0.60578713 6.23586997 0 3.68297096 0 0 Z " fill="#82899D" transform="translate(313,837)"/>
<path d="M0 0 C1.60730794 6.42923174 -1.79745664 10.55567629 -5 16 C-5.66 15.67 -6.32 15.34 -7 15 C-3.535 7.575 -3.535 7.575 0 0 Z " fill="#8BA5B0" transform="translate(867,385)"/>
<path d="M0 0 C0.66 0.99 1.32 1.98 2 3 C1.67 3.66 1.34 4.32 1 5 C0.34 5 -0.32 5 -1 5 C-1.268125 5.7425 -1.53625 6.485 -1.8125 7.25 C-2.94229421 9.86636554 -4.20893202 11.80187111 -6 14 C-6.33 13.34 -6.66 12.68 -7 12 C-5.56640625 9.1796875 -5.56640625 9.1796875 -3.5625 5.875 C-2.57443359 4.23144531 -2.57443359 4.23144531 -1.56640625 2.5546875 C-1.04949219 1.71164063 -0.53257812 0.86859375 0 0 Z " fill="#8F95A7" transform="translate(297,242)"/>
<path d="M0 0 C0.33 0.66 0.66 1.32 1 2 C0.10333658 4.24310013 -0.89146683 6.44754321 -1.9375 8.625 C-2.50339844 9.81351563 -3.06929687 11.00203125 -3.65234375 12.2265625 C-4.09707031 13.14179687 -4.54179688 14.05703125 -5 15 C-5.33 15 -5.66 15 -6 15 C-6 13.02 -6 11.04 -6 9 C-5.34 9 -4.68 9 -4 9 C-3.71125 8.071875 -3.4225 7.14375 -3.125 6.1875 C-2 3 -2 3 0 0 Z " fill="#859BA9" transform="translate(768,742)"/>
<path d="M0 0 C1.39211215 4.17633644 -0.0464421 5.78960515 -1.9375 9.6875 C-2.50339844 10.86699219 -3.06929687 12.04648437 -3.65234375 13.26171875 C-4.09707031 14.16535156 -4.54179688 15.06898438 -5 16 C-5.33 16 -5.66 16 -6 16 C-6 14.02 -6 12.04 -6 10 C-5.34 10 -4.68 10 -4 10 C-3.71125 9.0925 -3.4225 8.185 -3.125 7.25 C-2.23468224 4.67797092 -1.28505587 2.38653234 0 0 Z " fill="#95AEB8" transform="translate(899,444)"/>
<path d="M0 0 C0 0.66 0 1.32 0 2 C-1.74635165 2.53293835 -3.49727652 3.05090663 -5.25 3.5625 C-6.22453125 3.85253906 -7.1990625 4.14257812 -8.203125 4.44140625 C-10.96243932 4.99249836 -12.3912824 4.93789609 -15 4 C-13.4221875 3.566875 -13.4221875 3.566875 -11.8125 3.125 C-8.13822169 2.11069449 -8.13822169 2.11069449 -5.25 0.875 C-3 0 -3 0 0 0 Z " fill="#6E8395" transform="translate(626,910)"/>
<path d="M0 0 C1.18771723 3.42943519 0.80226223 5.37784675 -0.4375 8.75 C-0.72496094 9.54921875 -1.01242188 10.3484375 -1.30859375 11.171875 C-1.53675781 11.77515625 -1.76492187 12.3784375 -2 13 C-2.99 13 -3.98 13 -5 13 C-4.54554036 11.58208592 -4.08625056 10.16571954 -3.625 8.75 C-3.24214844 7.56664062 -3.24214844 7.56664062 -2.8515625 6.359375 C-2.04826333 4.13372042 -1.10288338 2.09068328 0 0 Z " fill="#8E8FA3" transform="translate(180,490)"/>
<path d="M0 0 C3.83520308 3.28731693 6.32465344 7.25147171 8 12 C7.67 12.66 7.34 13.32 7 14 C5.82508418 12.23462904 4.66031316 10.46250287 3.5 8.6875 C2.8503125 7.70136719 2.200625 6.71523438 1.53125 5.69921875 C0 3 0 3 0 0 Z " fill="#2C6777" transform="translate(924,295)"/>
<path d="M0 0 C0.66 0.66 1.32 1.32 2 2 C0.02 5.63 -1.96 9.26 -4 13 C-4.33 13 -4.66 13 -5 13 C-5.37078652 7.43820225 -5.37078652 7.43820225 -3.625 5.375 C-3.08875 4.92125 -2.5525 4.4675 -2 4 C-0.82425289 1.90010348 -0.82425289 1.90010348 0 0 Z " fill="#A6ACBB" transform="translate(382,186)"/>
<path d="M0 0 C0.66 0 1.32 0 2 0 C1.67 3.3 1.34 6.6 1 10 C0.01 10 -0.98 10 -2 10 C-1.34 6.7 -0.68 3.4 0 0 Z " fill="#71929F" transform="translate(916,602)"/>
<path d="M0 0 C-1.28813342 0.83878455 -2.58063256 1.67086783 -3.875 2.5 C-4.59429688 2.9640625 -5.31359375 3.428125 -6.0546875 3.90625 C-8 5 -8 5 -10 5 C-8.94958421 2.13522966 -8.29875437 1.16086774 -5.5625 -0.3125 C-3 -1 -3 -1 0 0 Z " fill="#6C8697" transform="translate(716,876)"/>
<path d="M0 0 C0 3.61537605 -0.89229241 5.11165997 -3 8 C-3.99 8 -4.98 8 -6 8 C-4.55746343 4.63408134 -2.66735273 2.48952921 0 0 Z " fill="#7D97A4" transform="translate(837,772)"/>
<path d="M0 0 C0 0.99 0 1.98 0 3 C-2.97 3 -5.94 3 -9 3 C-5.87496336 0.91664224 -3.72863529 0 0 0 Z " fill="#59778A" transform="translate(837,670)"/>
</svg>
